<?xml version="1.0" encoding="UTF-8" standalone="no"?>
<svg
   width="172.51363mm"
   height="47.432217mm"
   style="overflow:visible"
   class="thumb"
   viewBox="0 0 652.02001 179.27137"
   version="1.1"
   id="svg296"
   sodipodi:docname="chest with text.svg"
   inkscape:version="1.1.1 (3bf5ae0d25, 2021-09-20)"
   xmlns:inkscape="http://www.inkscape.org/namespaces/inkscape"
   xmlns:sodipodi="http://sodipodi.sourceforge.net/DTD/sodipodi-0.dtd"
   xmlns="http://www.w3.org/2000/svg"
   xmlns:svg="http://www.w3.org/2000/svg">
  <sodipodi:namedview
     id="namedview298"
     pagecolor="#ffffff"
     bordercolor="#666666"
     borderopacity="1.0"
     inkscape:pageshadow="2"
     inkscape:pageopacity="0.0"
     inkscape:pagecheckerboard="0"
     showgrid="false"
     inkscape:snap-global="false"
     inkscape:zoom="1.5800781"
     inkscape:cx="255.36712"
     inkscape:cy="91.451176"
     inkscape:window-width="1920"
     inkscape:window-height="1017"
     inkscape:window-x="-8"
     inkscape:window-y="-8"
     inkscape:window-maximized="1"
     inkscape:current-layer="svg296"
     units="mm"
     inkscape:document-units="mm"
     fit-margin-top="0"
     fit-margin-left="0"
     fit-margin-right="0"
     fit-margin-bottom="0" />
  <defs
     transform="matrix(0.479956141337112, 0, 0, 0.479956141337112, 58.610945996915525, 186.11537574007457)"
     data-uid="o_ek0fjn5c6_6"
     id="defs204" />
  <g
     data-uid="o_ek0fjn5c6_173"
     transform="matrix(2.9136625,0,0,2.8045452,-8.7409875,-8.4136356)"
     id="g294">
    <path
       data-type="polygon"
       d="M 8.847,33 H 11 V 29 H 8.18 Z"
       data-uid="o_ek0fjn5c6_128"
       id="path206" />
    <path
       data-type="polygon"
       d="m 13,33.586 3.343,3.343 3.445,-0.574 L 13,30.245 Z"
       data-uid="o_ek0fjn5c6_129"
       id="path208" />
    <path
       data-type="polygon"
       d="M 15,41 V 38.414 L 11.586,35 H 9 v 2.586 L 12.414,41 Z"
       data-uid="o_ek0fjn5c6_130"
       id="path210" />
    <path
       d="M 21,40.142 V 38.18 l -4,0.667 V 41 h 2.382 C 19.843,40.598 20.391,40.3 21,40.142 Z"
       data-uid="o_ek0fjn5c6_131"
       id="path212" />
    <path
       d="m 39,31 c -0.298,0 -0.581,0.049 -0.85,0.121 -0.432,0.754 -1.013,1.429 -1.712,1.998 0.825,0.132 1.607,0.371 2.323,0.706 l 2.12,-2.12 C 40.622,31.356 39.946,31 39,31 Z"
       data-uid="o_ek0fjn5c6_132"
       id="path214" />
    <path
       d="M 23.301,29.893 C 22.057,30.59 20.584,31 19,31 18.088,31 17.214,30.859 16.397,30.612 L 23,36.555 v 0.85 C 23.587,37.154 24.262,37 25,37 c 0.079,0 0.151,0.014 0.229,0.017 C 25.082,36.7 25,36.358 25,36 c 0,-0.924 0.541,-1.727 1.39,-2.273 -1.484,-0.913 -2.589,-2.255 -3.089,-3.834 z"
       data-uid="o_ek0fjn5c6_133"
       id="path216" />
    <path
       d="m 23,40 c 0,0.049 0.013,0.1 0.034,0.153 0.583,0.157 1.108,0.441 1.554,0.823 C 24.719,40.99 24.856,41 25,41 c 1.221,0 2,-0.592 2,-1 0,-0.408 -0.779,-1 -2,-1 -1.221,0 -2,0.592 -2,1 z"
       data-uid="o_ek0fjn5c6_134"
       id="path218" />
    <path
       d="m 31,23 c -1.511,0 -2.912,0.48 -4.019,1.322 -0.085,1.621 -0.798,3.099 -1.938,4.25 C 25.39,31.049 27.961,33 31,33 c 3.309,0 6,-2.243 6,-5 0,-2.757 -2.691,-5 -6,-5 z m 0,7 c -1.657,0 -3,-0.895 -3,-2 0,-1.105 1.343,-2 3,-2 1.657,0 3,0.895 3,2 0,1.105 -1.343,2 -3,2 z"
       data-uid="o_ek0fjn5c6_135"
       id="path220" />
    <path
       d="m 40.491,34.923 c 0.59,0.489 1.096,1.052 1.495,1.676 L 47.586,31 46,29.414 Z"
       data-uid="o_ek0fjn5c6_136"
       id="path222" />
    <path
       d="m 19,19 c -3.309,0 -6,2.243 -6,5 0,2.757 2.691,5 6,5 3.309,0 6,-2.243 6,-5 0,-2.757 -2.691,-5 -6,-5 z m 0,7 c -1.657,0 -3,-0.895 -3,-2 0,-1.105 1.343,-2 3,-2 1.657,0 3,0.895 3,2 0,1.105 -1.343,2 -3,2 z"
       data-uid="o_ek0fjn5c6_137"
       id="path224" />
    <path
       d="M 44.368,37.046 C 44.575,37.023 44.783,37 45,37 c 0.791,0 1.515,0.171 2.129,0.456 L 50.586,34 49,32.414 Z"
       data-uid="o_ek0fjn5c6_138"
       id="path226" />
    <path
       d="m 45,41 c 1.221,0 2,-0.592 2,-1 0,-0.408 -0.779,-1 -2,-1 -1.221,0 -2,0.592 -2,1 0,0.049 0.013,0.1 0.034,0.153 0.583,0.157 1.108,0.441 1.554,0.823 C 44.719,40.99 44.856,41 45,41 Z"
       data-uid="o_ek0fjn5c6_139"
       id="path228" />
    <path
       d="m 23,9 c 0,-1.103 0.897,-2 2,-2 h 14 c 1.103,0 2,0.897 2,2 v 4 H 57 V 12 C 57,7.038 52.962,3 48,3 H 16 C 11.038,3 7,7.038 7,12 v 1 h 16 z"
       data-uid="o_ek0fjn5c6_140"
       id="path230" />
    <path
       d="m 9,27 h 2.783 C 11.286,26.089 11,25.075 11,24 c 0,-1.958 0.926,-3.728 2.412,-5 H 9 Z"
       data-uid="o_ek0fjn5c6_141"
       id="path232" />
    <path
       d="M 39.382,41 C 39.84,40.6 40.384,40.304 40.989,40.145 40.991,40.097 41,40.049 41,40 c 0,-2.757 -2.691,-5 -6,-5 -3.309,0 -6,2.243 -6,5 0,0.339 0.054,0.672 0.135,1 h 3.281 C 32.158,40.705 32,40.366 32,40 c 0,-1.105 1.343,-2 3,-2 1.657,0 3,0.895 3,2 0,0.366 -0.158,0.705 -0.416,1 z"
       data-uid="o_ek0fjn5c6_142"
       id="path234" />
    <path
       d="M 42.07,25.083 C 40.854,24.903 39.581,25.047 38.457,25.484 38.803,26.266 39,27.112 39,28 c 0,0.343 -0.038,0.678 -0.093,1.008 0.032,0 0.062,-0.008 0.093,-0.008 1.386,0 2.584,0.505 3.299,1.287 L 44.586,28 l -2,-2 C 42.329,25.743 42.158,25.426 42.07,25.083 Z"
       data-uid="o_ek0fjn5c6_143"
       id="path236" />
    <path
       d="M 43.947,51.473 C 43.97,51.647 44,51.819 44,52 c 0,2.206 -1.794,4 -4,4 -0.181,0 -0.353,-0.03 -0.527,-0.053 C 38.786,57.165 37.496,58 36,58 35.268,58 34.591,57.788 34,57.444 33.409,57.788 32.732,58 32,58 31.268,58 30.591,57.788 30,57.444 29.409,57.788 28.732,58 28,58 26.504,58 25.214,57.165 24.527,55.947 24.353,55.97 24.181,56 24,56 21.794,56 20,54.206 20,52 20,51.819 20.03,51.647 20.053,51.473 19.117,50.946 18.411,50.06 18.133,49 H 7 v 6 c 3.309,0 6,2.691 6,6 h 38 c 0,-3.309 2.691,-6 6,-6 V 49 H 45.867 c -0.279,1.06 -0.984,1.945 -1.92,2.473 z"
       data-uid="o_ek0fjn5c6_144"
       id="path238" />
    <path
       d="M 30,50.556 C 30.591,50.212 31.268,50 32,50 c 0.732,0 1.409,0.212 2,0.556 C 34.591,50.212 35.268,50 36,50 c 0.181,0 0.353,0.03 0.527,0.053 C 36.754,49.65 37.053,49.3 37.398,49 H 26.602 c 0.345,0.3 0.644,0.65 0.871,1.053 C 27.647,50.03 27.819,50 28,50 c 0.732,0 1.409,0.212 2,0.556 z"
       data-uid="o_ek0fjn5c6_145"
       id="path240" />
    <path
       d="m 53,61 h 1 c 1.654,0 3,-1.346 3,-3 v -1 c -2.206,0 -4,1.794 -4,4 z"
       data-uid="o_ek0fjn5c6_146"
       id="path242" />
    <path
       d="M 38.556,46 C 38.212,45.409 38,44.732 38,44 c 0,-0.347 0.058,-0.678 0.142,-1 H 25.858 c 0.084,0.322 0.142,0.653 0.142,1 0,0.732 -0.212,1.409 -0.556,2 0.181,0.311 0.322,0.646 0.419,1 h 12.275 c 0.096,-0.354 0.237,-0.689 0.418,-1 z"
       data-uid="o_ek0fjn5c6_147"
       id="path244" />
    <path
       d="m 7,47 h 11.138 c 0.096,-0.354 0.238,-0.689 0.419,-1 C 18.212,45.409 18,44.732 18,44 c 0,-0.347 0.058,-0.678 0.142,-1 H 7 Z"
       data-uid="o_ek0fjn5c6_148"
       id="path246" />
    <path
       d="m 46,44 c 0,0.732 -0.212,1.409 -0.556,2 0.181,0.311 0.322,0.646 0.419,1 H 57 V 43 H 45.858 C 45.942,43.322 46,43.653 46,44 Z"
       data-uid="o_ek0fjn5c6_149"
       id="path248" />
    <path
       data-type="circle"
       data-cx="22"
       data-cy="48"
       data-r="2"
       d="m 22,48 m -2,0 a 2,2 0 1 0 4,0 2,2 0 1 0 -4,0"
       data-uid="o_ek0fjn5c6_150"
       id="path250" />
    <path
       data-type="circle"
       data-cx="22"
       data-cy="44"
       data-r="2"
       d="m 22,44 m -2,0 a 2,2 0 1 0 4,0 2,2 0 1 0 -4,0"
       data-uid="o_ek0fjn5c6_151"
       id="path252" />
    <path
       data-type="circle"
       data-cx="24"
       data-cy="52"
       data-r="2"
       d="m 24,52 m -2,0 a 2,2 0 1 0 4,0 2,2 0 1 0 -4,0"
       data-uid="o_ek0fjn5c6_152"
       id="path254" />
    <path
       data-type="circle"
       data-cx="28"
       data-cy="54"
       data-r="2"
       d="m 28,54 m -2,0 a 2,2 0 1 0 4,0 2,2 0 1 0 -4,0"
       data-uid="o_ek0fjn5c6_153"
       id="path256" />
    <path
       data-type="circle"
       data-cx="32"
       data-cy="54"
       data-r="2"
       d="m 32,54 m -2,0 a 2,2 0 1 0 4,0 2,2 0 1 0 -4,0"
       data-uid="o_ek0fjn5c6_154"
       id="path258" />
    <path
       data-type="circle"
       data-cx="42"
       data-cy="48"
       data-r="2"
       d="m 42,48 m -2,0 a 2,2 0 1 0 4,0 2,2 0 1 0 -4,0"
       data-uid="o_ek0fjn5c6_155"
       id="path260" />
    <path
       data-type="circle"
       data-cx="42"
       data-cy="44"
       data-r="2"
       d="m 42,44 m -2,0 a 2,2 0 1 0 4,0 2,2 0 1 0 -4,0"
       data-uid="o_ek0fjn5c6_156"
       id="path262" />
    <path
       data-type="circle"
       data-cx="40"
       data-cy="52"
       data-r="2"
       d="m 40,52 m -2,0 a 2,2 0 1 0 4,0 2,2 0 1 0 -4,0"
       data-uid="o_ek0fjn5c6_157"
       id="path264" />
    <path
       data-type="circle"
       data-cx="36"
       data-cy="54"
       data-r="2"
       d="m 36,54 m -2,0 a 2,2 0 1 0 4,0 2,2 0 1 0 -4,0"
       data-uid="o_ek0fjn5c6_158"
       id="path266" />
    <path
       d="m 7,57 v 1 c 0,1.654 1.346,3 3,3 h 1 C 11,58.794 9.206,57 7,57 Z"
       data-uid="o_ek0fjn5c6_159"
       id="path268" />
    <path
       transform="matrix(0.70710003,-0.70710003,0.70710003,0.70710003,-1.5685,46.2132)"
       data-type="rect"
       data-x="51.757"
       data-y="23.171"
       data-width="6.485"
       data-height="3.657"
       d="M 51.757,23.171"
       data-uid="o_ek0fjn5c6_160"
       id="path270" />
    <path
       d="m 58.414,19 -1,1 2.586,2.586 1,-1 C 61,20.16 59.84,19 58.414,19 Z"
       data-uid="o_ek0fjn5c6_161"
       id="path272" />
    <path
       data-type="polygon"
       d="M 7.586,39 H 4.414 l 2,2 h 3.172 z"
       data-uid="o_ek0fjn5c6_162"
       id="path274" />
    <path
       d="M 44,24.586 55.414,36 C 56.289,36 57,35.288 57,34.414 L 45.586,23 C 44.711,23 44,23.711 44,24.586 Z"
       data-uid="o_ek0fjn5c6_163"
       id="path276" />
    <path
       d="m 47,21.586 3,3 L 55.586,19 H 24.588 c 0.986,0.844 1.72,1.909 2.105,3.102 C 27.967,21.388 29.448,21 31,21 c 2.593,0 4.894,1.09 6.357,2.768 1.525,-0.677 3.289,-0.908 4.974,-0.666 C 42.897,21.865 44.139,21 45.586,21 46.12,21 46.622,21.208 47,21.586 Z"
       data-uid="o_ek0fjn5c6_164"
       id="path278" />
    <path
       d="m 27,36 c 0,0.273 0.34,0.604 0.888,0.809 0.389,-0.661 0.89,-1.262 1.488,-1.78 C 29.252,35.015 29.128,35 29,35 c -1.221,0 -2,0.592 -2,1 z"
       data-uid="o_ek0fjn5c6_165"
       id="path280" />
    <path
       data-type="polygon"
       d="m 33,13 v 4 h 6 V 9 H 25 v 8 h 6 v -4 h -2 v -2 h 6 v 2 z"
       data-uid="o_ek0fjn5c6_166"
       id="path282" />
    <path
       d="m 55,41 v -3.045 c -0.376,-0.079 -0.722,-0.263 -1,-0.541 l -2,-2 -3.35,3.35 C 48.871,39.14 49,39.556 49,40 c 0,0.354 -0.093,0.687 -0.237,1 z"
       data-uid="o_ek0fjn5c6_167"
       id="path284" />
    <path
       data-type="rect"
       data-x="41"
       data-y="15"
       data-width="16"
       data-height="2"
       d="M 41,15"
       data-uid="o_ek0fjn5c6_168"
       id="path286" />
    <path
       data-type="polygon"
       d="m 6.333,30.081 -2.252,2.252 2.703,0.451 z"
       data-uid="o_ek0fjn5c6_169"
       id="path288" />
    <path
       data-type="rect"
       data-x="7"
       data-y="15"
       data-width="16"
       data-height="2"
       d="M 7,15"
       data-uid="o_ek0fjn5c6_170"
       id="path290" />
    <path
       data-type="polygon"
       d="M 7,34.847 3,34.18 V 37 h 4 z"
       data-uid="o_ek0fjn5c6_171"
       id="path292" />
  </g>
  <rect
     style="fill:#000000;fill-opacity:1"
     id="rect3728"
     width="40.504326"
     height="5.6959209"
     x="13.822378"
     y="33.046131" />
  <rect
     style="overflow:visible;fill:#000000;fill-opacity:1"
     id="rect3728-0"
     width="40.504326"
     height="5.6959209"
     x="114.04982"
     y="33.132664" />
  <rect
     style="fill:#000000;fill-opacity:1"
     id="rect3854"
     width="15.189122"
     height="19.619284"
     x="143.72533"
     y="-72.094727"
     transform="rotate(45)" />
  <text
     xml:space="preserve"
     style="font-size:87.1486px;line-height:1.25;font-family:'Baskerville Old Face';-inkscape-font-specification:'Baskerville Old Face';stroke-width:2.17872"
     x="170.86299"
     y="153.1461"
     id="text5805"
     transform="scale(0.97416477,1.0265204)"><tspan
       sodipodi:role="line"
       id="tspan5803"
       x="170.86299"
       y="153.1461"
       style="stroke-width:2.17872">Antiquarium</tspan></text>
  <text
     xml:space="preserve"
     style="font-size:72.0769px;line-height:1.25;font-family:'Baskerville Old Face';-inkscape-font-specification:'Baskerville Old Face';stroke-width:1.80192"
     x="176.74873"
     y="86.965363"
     id="text6831"
     transform="scale(0.97795801,1.0225388)"><tspan
       sodipodi:role="line"
       id="tspan6829"
       x="176.74873"
       y="86.965363"
       style="stroke-width:1.80192">The</tspan></text>
  <text
     xml:space="preserve"
     style="font-size:40px;line-height:1.25;font-family:calibri;-inkscape-font-specification:calibri"
     x="604.94971"
     y="157.87677"
     id="text9325"><tspan
       sodipodi:role="line"
       id="tspan9323"
       x="604.94971"
       y="157.87677">Ltd</tspan></text>
  <text
     xml:space="preserve"
     style="font-style:italic;font-size:28.3005px;line-height:1.25;font-family:calibri;-inkscape-font-specification:'calibri Italic';stroke-width:0.707512"
     x="405.99432"
     y="193.44244"
     id="text11137"
     transform="scale(1.0805127,0.92548656)"><tspan
       sodipodi:role="line"
       id="tspan11135"
       x="405.99432"
       y="193.44244"
       style="stroke-width:0.707512">Weedon Bec</tspan></text>
</svg>
