<?xml version="1.0" encoding="UTF-8" standalone="no"?>
<!-- Created with Inkscape (http://www.inkscape.org/) -->

<svg
   width="400mm"
   height="685mm"
   viewBox="0 0 400 685"
   version="1.1"
   id="svg5"
   inkscape:version="1.1.1 (3bf5ae0d25, 2021-09-20)"
   sodipodi:docname="map small.svg"
   inkscape:export-filename="C:\Users\Tim\Desktop\The Antiquarium\assets\images\map small.png"
   inkscape:export-xdpi="25.4"
   inkscape:export-ydpi="25.4"
   xmlns:inkscape="http://www.inkscape.org/namespaces/inkscape"
   xmlns:sodipodi="http://sodipodi.sourceforge.net/DTD/sodipodi-0.dtd"
   xmlns="http://www.w3.org/2000/svg"
   xmlns:svg="http://www.w3.org/2000/svg">
  <sodipodi:namedview
     id="namedview7"
     pagecolor="#ffffff"
     bordercolor="#666666"
     borderopacity="1.0"
     inkscape:pageshadow="2"
     inkscape:pageopacity="0.0"
     inkscape:pagecheckerboard="0"
     inkscape:document-units="mm"
     showgrid="false"
     width="400mm"
     inkscape:zoom="0.18529742"
     inkscape:cx="-871.57177"
     inkscape:cy="1481.4022"
     inkscape:window-width="1920"
     inkscape:window-height="1017"
     inkscape:window-x="-8"
     inkscape:window-y="-8"
     inkscape:window-maximized="1"
     inkscape:current-layer="layer1" />
  <defs
     id="defs2" />
  <g
     inkscape:label="Layer 1"
     inkscape:groupmode="layer"
     id="layer1">
    <rect
       style="fill:#cccccc;stroke:#008080;stroke-width:1.292"
       id="rect333"
       width="32.386463"
       height="18.107618"
       x="36.638496"
       y="300.79712" />
    <rect
       style="fill:#cccccc;stroke:#008080;stroke-width:1.292"
       id="rect333-2"
       width="32.386463"
       height="18.107618"
       x="69.024963"
       y="300.79712" />
    <rect
       style="fill:#cccccc;stroke:#008080;stroke-width:1.292"
       id="rect333-1"
       width="32.386463"
       height="18.107618"
       x="101.41142"
       y="300.79712" />
    <rect
       style="fill:#008080;stroke:#008080;stroke-width:2.265"
       id="rect782"
       width="97.096153"
       height="11.423078"
       x="36.436214"
       y="328.60562" />
    <ellipse
       style="fill:#ff0000;stroke:#008080;stroke-width:2.67907"
       id="path908"
       cx="109.9471"
       cy="311.99283"
       rx="5.5045028"
       ry="6.2184448" />
    <path
       style="fill:none;stroke:#000000;stroke-width:0.985478;stroke-linecap:butt;stroke-linejoin:miter;stroke-miterlimit:4;stroke-dasharray:none;stroke-opacity:1"
       d="m 156.80606,174.15775 c 3.04593,1.2736 1.65108,7.68523 2.86465,9.75057 0.21351,0.36338 1.09472,-0.28728 1.43232,0 0.23176,0.19722 2.45489,8.01029 1.43233,9.75057 -2.9805,5.07244 0.0989,-1.30297 -2.86465,1.21882 -0.6752,0.57456 0.6752,1.86309 0,2.43764 -1.19361,1.01569 -3.10337,1.42196 -4.29698,2.43765 -2.69609,2.29421 -1.49545,7.36665 -2.86463,8.53174 -0.75491,0.64238 -2.10975,0.57645 -2.86465,1.21882 -0.8745,0.74415 -3.84027,18.67094 -2.86465,19.50114 0.3376,0.28727 1.09472,-0.28728 1.43232,0 0.6752,0.57456 -0.6752,1.86309 0,2.43764 2.96352,2.52178 -0.11585,-3.85362 2.86465,1.21882 0.56555,0.9625 -0.40265,2.62857 0,3.65647 2.54012,6.48445 8.86788,13.92651 5.72929,21.93877 -1.40622,3.58985 -4.76596,7.712 -7.16161,9.75057 -0.33761,0.28727 -1.21881,-0.36339 -1.43233,0 -0.8718,1.48371 -0.49183,3.27469 -1.43232,4.87527 -2.12649,3.61902 0,12.92751 0,17.06349 0,0.50188 -0.37914,3.33385 0,3.65647 0.3376,0.2873 1.09472,-0.28727 1.43232,0 0.71616,0.60942 -0.71616,3.04707 0,3.65647 0.96426,0.82053 1.81006,0.64287 2.86465,2.43765 0.4324,0.73589 -0.66211,3.09305 0,3.65647 0.3376,0.28727 1.09472,-0.2873 1.43233,0 2.94094,2.50256 -1.46582,10.88389 0,14.62584 1.63465,4.17299 4.90032,34.31895 2.86463,37.78345 -1.05011,1.78717 -2.86463,8.5372 -2.86463,9.75058"
       id="path3288" />
    <text
       xml:space="preserve"
       style="font-style:normal;font-weight:normal;font-size:10.5833px;line-height:1.25;font-family:sans-serif;fill:#000000;fill-opacity:1;stroke:none;stroke-width:0.264583"
       x="157.06729"
       y="227.03366"
       id="text4450"><tspan
         sodipodi:role="line"
         id="tspan4448"
         style="stroke-width:0.264583"
         x="157.06729"
         y="227.03366">Harman's Way</tspan></text>
    <path
       style="fill:none;stroke:#000000;stroke-width:1.065;stroke-linecap:butt;stroke-linejoin:miter;stroke-opacity:1;stroke-miterlimit:4;stroke-dasharray:none"
       d="m 74.249999,148.5 c 3.077757,12.31103 -1.22287,2.95827 4.283654,5.71154 0.851427,0.42571 -0.67311,2.18265 0,2.85577 0.336555,0.33655 1.09133,-0.33656 1.427885,0 0.336555,0.33655 0,0.95192 0,1.42788 0.475962,0.47596 0.889394,1.02402 1.427885,1.42789 6.160055,4.62004 11.823842,8.6341 19.990387,9.99519 4.05266,0.67544 11.98275,-1.86199 15.70673,0 4.76119,2.38059 17.1259,7.13724 22.84615,8.56731 4.42416,1.10603 19.04066,0.94972 19.99039,0 0.33655,-0.33656 -0.42572,-1.21503 0,-1.42789 8.09134,0 0.47596,0.95192 2.85576,-1.42788 0.71395,-0.71395 3.56972,0.71394 4.28366,0 0.33655,-0.33656 -0.42571,-1.21503 0,-1.42789 2.08408,-1.04204 6.64063,0.49879 8.56731,-1.42788 0.33655,-0.33656 -0.39603,-1.16387 0,-1.42789 2.30919,-1.53946 4.83022,-2.74419 7.13942,-4.28365 0.79205,-0.52803 2.18266,0.67311 2.85577,0 0.33655,-0.33656 -0.42572,-1.21503 0,-1.42789 1.14231,-0.57115 3.14134,0.57116 4.28365,0 1.53493,-0.76746 2.74873,-2.0883 4.28366,-2.85577 3.51681,-1.7584 -1.28901,4.14477 4.28365,-1.42788 0.33656,-0.33656 -0.45154,-1.27737 0,-1.42788 3.40037,-1.13346 9.87052,-1.30322 12.85096,-4.28366 0.33656,-0.33655 -0.42571,-1.21503 0,-1.42788 5.50882,-2.75441 32.06582,0.32617 34.26923,1.42788 2.64859,1.32429 5.04174,2.85577 8.56731,2.85577 5.95428,0 29.06823,-1.73367 34.26923,0 2.20675,0.73558 6.7818,4.52119 8.56731,5.71154"
       id="path4961" />
    <text
       xml:space="preserve"
       style="font-style:normal;font-weight:normal;font-size:10.5833px;line-height:1.25;font-family:sans-serif;fill:#000000;fill-opacity:1;stroke:none;stroke-width:0.264583"
       x="122.41063"
       y="159.87044"
       id="text6726"><tspan
         sodipodi:role="line"
         id="tspan6724"
         style="stroke-width:0.264583"
         x="122.41063"
         y="159.87044">High Street</tspan></text>
    <path
       style="fill:none;stroke:#000000;stroke-width:1.065;stroke-linecap:butt;stroke-linejoin:miter;stroke-opacity:1;stroke-miterlimit:4;stroke-dasharray:none"
       d="m 152.5091,365.51266 c 3.04969,-5.82162 18.80569,-7.08226 21.69282,-9.96939 0.33656,-0.33655 -0.33655,-1.09133 0,-1.42788 1.27285,-1.27286 4.19509,-0.66966 5.71154,-1.4279 6.97986,-3.48993 1.38925,-2.48915 8.56731,-4.28366 6.88735,-1.72183 14.06367,-2.07727 21.41827,-4.28366 2.03879,-0.61163 3.64652,-2.33949 5.71153,-2.85575 2.41474,-0.60367 12.40612,0.44484 14.27885,-1.42788 0.33656,-0.33657 -0.33656,-1.09132 0,-1.4279 0.66006,-0.66006 3.42153,0.43106 4.28365,0 1.02239,-0.51117 1.83338,-2.34458 2.85577,-2.85575 1.97295,-0.98648 5.04005,-0.72811 7.13943,-1.42791 1.99125,-0.66373 5.36688,-3.39738 7.13942,-4.28363 1.97294,-0.98647 5.04004,-0.7281 7.13942,-1.4279 2.87604,-0.95866 2.96621,-2.96619 4.28366,-4.28366 0.89596,-0.89596 6.03541,-0.32385 7.13941,-1.42787 0.33655,-0.33655 -0.33655,-1.09133 0,-1.42788 3.1532,-3.1532 4.91935,-1.48778 8.56732,-2.85578 8.43004,-5.05804 4.50654,-3.40601 11.42306,-5.71153"
       id="path7501" />
    <path
       style="fill:none;stroke:#000000;stroke-width:1.065;stroke-linecap:butt;stroke-linejoin:miter;stroke-miterlimit:4;stroke-dasharray:none;stroke-opacity:1"
       d="m 267.7032,321.45772 c 1.90387,0.47596 4.02879,0.41822 5.71156,1.42787 0.91261,0.54759 0.67533,2.10323 1.42788,2.85578 2.30084,2.30085 7.12674,1.8954 8.56732,2.85578 1.12011,0.74674 1.73564,2.10902 2.85575,2.85576 1.16652,0.77769 5.67777,0 7.13944,0"
       id="path7538" />
    <path
       style="fill:none;stroke:#000000;stroke-width:1.065;stroke-linecap:butt;stroke-linejoin:miter;stroke-opacity:1;stroke-miterlimit:4;stroke-dasharray:none"
       d="m 152.5091,365.51266 c 0.50227,4.8041 4.09954,22.3614 1.70244,27.15559 -1.14231,2.28463 -4.56923,3.42694 -5.71154,5.71156 -0.57116,1.14229 0.57115,3.14135 0,4.28363 -0.30103,0.60206 -1.12686,0.82585 -1.42789,1.42791 -0.42571,0.85143 0.67312,2.18265 0,2.85575 -0.33655,0.33658 -1.09133,-0.33655 -1.42788,0 -1.30793,1.30794 0.56365,20.25348 1.42788,22.84616 0.30103,0.90308 -0.67311,2.18266 0,2.85578 1.04625,1.04624 3.1699,1.49924 4.28366,4.28366 0.5303,1.32575 -0.28004,2.88348 0,4.28363 1.00615,5.03079 4.52414,10.35592 7.13942,14.27885 0.83465,1.25198 -0.48526,4.25577 0,5.71153 0.13117,0.39352 1.30193,8.44137 1.42789,8.56732 0.33655,0.33655 1.09132,-0.33655 1.42788,0 1.96482,1.96482 -0.88547,11.62243 0,14.27884 1.07579,3.22736 0.0438,8.655 1.42788,11.42307 2.78674,5.57348 2.69001,13.61583 4.28366,19.99041 1.09828,4.39312 -1.42781,9.99543 0,14.27885 0.98414,2.9524 1.42788,2.89785 1.42788,5.71153"
       id="path7653" />
    <text
       xml:space="preserve"
       style="font-style:normal;font-weight:normal;font-size:10.5833px;line-height:1.25;font-family:sans-serif;fill:#000000;fill-opacity:1;stroke:none;stroke-width:0.264583"
       x="197.04808"
       y="358.39905"
       id="text8881"><tspan
         sodipodi:role="line"
         id="tspan8879"
         style="stroke-width:0.264583"
         x="197.04808"
         y="358.39905">Bridge Street</tspan></text>
    <text
       xml:space="preserve"
       style="font-style:normal;font-weight:normal;font-size:10.5833px;line-height:1.25;font-family:sans-serif;fill:#000000;fill-opacity:1;stroke:none;stroke-width:0.264583"
       x="169.91826"
       y="464.0625"
       id="text10241"><tspan
         sodipodi:role="line"
         id="tspan10239"
         style="stroke-width:0.264583"
         x="169.91826"
         y="464.0625">Bridge Street</tspan></text>
    <path
       style="fill:#ffffff;stroke:#008080;stroke-width:1.065;stroke-linecap:butt;stroke-linejoin:miter;stroke-opacity:1;stroke-miterlimit:4;stroke-dasharray:none"
       d="m 2.8557691,571.15384 c 5.2393156,-2.75339 6.9356794,-3.1618 11.4230769,-4.28366 0.81978,-0.20494 6.751971,-2.46832 7.139423,-2.85575 0.336556,-0.33658 -0.425713,-1.21505 0,-1.42791 0.851426,-0.42571 1.971931,0.35354 2.855769,0 2.738094,-1.09524 5.887245,-3.61362 8.567307,-4.28365 6.0111,-1.50276 12.372946,-0.79259 18.5625,-2.85576 8.965168,-2.98839 31.220674,2.44407 42.836538,-1.4279 4.88288,-1.62761 9.796767,-1.36173 14.278847,-2.85575 2.79884,-0.93295 4.47114,-2.94953 7.13942,-4.28366 0.85143,-0.42572 1.9527,0.30102 2.85577,0 5.7191,-1.90638 11.49419,-3.83141 17.13462,-5.71153 2.14182,-0.71396 1.42788,1.42787 4.28365,0 0.42571,-0.21286 -0.33655,-1.09133 0,-1.42788 5.1749,-5.17491 18.50265,1.4578 24.27404,-1.4279 1.53493,-0.76745 2.69029,-2.21843 4.28365,-2.85576 3.07626,-1.23052 19.26011,-0.89651 22.84616,0 3.07441,0.76859 5.26798,2.19588 8.5673,2.85576 5.72585,1.14517 13.24723,-1.22973 18.5625,1.4279 0.42572,0.21286 -0.44192,1.25111 0,1.42788 2.25336,0.90133 4.85861,0.59848 7.13943,1.42787 7.19099,2.61491 14.07904,6.47039 21.41827,8.56732 1.37294,0.39227 2.92904,-0.45154 4.28365,0 3.029,1.00967 5.48696,3.44355 8.56731,4.28365 6.67035,0 6.83574,-0.57718 12.85096,1.42788 4.10088,1.36697 10.73804,2.51325 14.27885,4.28366 4.55229,2.27615 7.89551,4.29569 12.85094,5.71153 4.96843,1.41954 10.63625,3.43858 15.70676,4.28366 1.87793,0.313 4.00867,-0.85143 5.71153,0 2.51648,1.25825 5.364,2.39816 8.56731,2.85578 1.88471,0.26924 3.86453,-0.46175 5.71154,0 2.06499,0.51623 3.6922,2.18265 5.71153,2.85575 0.90308,0.30102 1.90384,0 2.85575,0 1.90387,0.47596 3.87406,0.73882 5.71156,1.42788 0.79095,0.29662 16.99411,5.57107 17.13461,5.71156 0.33655,0.33655 -0.39603,1.16385 0,1.42788 1.00414,0.66942 7.16563,3.81643 8.56731,4.28365 1.35461,0.45154 3.27398,-1.00967 4.28366,0 1.05833,1.05834 1.08347,2.51135 2.85575,4.28366 0.67313,0.6731 2.00435,-0.42571 2.85578,0 1.61933,0.80965 3.42001,4.84788 4.28366,5.71153 1.06429,1.06429 3.8077,0 4.28366,1.42788 0.45153,1.35461 -0.63858,3.00651 0,4.28366 1.17943,2.35889 3.10419,0.49686 4.28365,2.85578 0.9126,1.82523 -1.53924,2.85575 1.42788,2.85575"
       id="path10752" />
    <text
       xml:space="preserve"
       style="font-style:normal;font-weight:normal;font-size:10.5833px;line-height:1.25;font-family:sans-serif;fill:#000000;fill-opacity:1;stroke:none;stroke-width:0.264583"
       x="248.45192"
       y="542.59613"
       id="text13355"><tspan
         sodipodi:role="line"
         id="tspan13353"
         style="stroke-width:0.264583"
         x="248.45192"
         y="542.59613">River Nene</tspan></text>
    <path
       style="fill:none;stroke:#000000;stroke-width:1.065;stroke-linecap:butt;stroke-linejoin:miter;stroke-opacity:1;stroke-miterlimit:4;stroke-dasharray:none"
       d="m 168.49038,535.45673 c -1.05095,7.81074 2.84643,14.23215 4.28366,21.41826 0.28003,1.40015 -0.53031,2.95791 0,4.28366 0.74996,1.87489 3.64508,2.36794 4.28365,4.28365 1.01491,3.04472 0.55731,6.94817 1.42789,9.9952 0.58476,2.04665 2.271,3.66487 2.85576,5.71153 1.42196,4.97684 -0.33542,19.31953 1.42789,22.84616 4.42855,8.85709 4.28365,35.65435 4.28365,47.12018 0,3.566 1.33654,20.1731 0,22.84616 -1.62556,3.25112 -2.85577,12.04478 -2.85577,15.70672"
       id="path14196" />
    <path
       style="fill:none;stroke:#cbb100;stroke-width:1.065;stroke-linecap:butt;stroke-linejoin:miter;stroke-opacity:1;stroke-miterlimit:4;stroke-dasharray:none"
       d="m 399.80769,552.59133 c -11.49294,-1.24161 -15.80393,-2.95296 -24.27404,-11.42306 -2.16067,-2.16067 -4.52842,-4.18164 -5.71153,-7.13944 -1.16761,-2.91902 -0.63982,-4.18478 -2.85578,-7.13941 -2.35948,-3.14598 -2.7704,-4.1129 -4.28366,-7.13944 -1.0786,-2.15717 -4.95498,-3.44191 -5.71153,-5.71153 -0.30102,-0.90308 0.30101,-1.95268 0,-2.85576 -1.48564,-4.45688 -0.95192,0.47596 -2.85576,-1.4279 -1.55985,-1.55985 -3.10822,-5.96395 -4.28366,-7.13941 -0.33657,-0.33655 -0.95194,0 -1.4279,0 -0.47596,-0.47596 -1.0545,-0.86783 -1.42788,-1.42788 -4.00499,-6.00752 -6.94536,-11.16433 -11.42306,-17.13463 -1.66854,-2.22472 -5.05087,-2.19509 -7.13944,-4.28365 -3.20805,-3.20805 -6.06547,-10.3491 -9.99519,-14.27885 -0.75256,-0.75256 -2.26542,-0.54234 -2.85575,-1.42788 -0.52803,-0.79205 0.30101,-1.9527 0,-2.85578 -1.78219,-5.34654 -5.34694,-10.32925 -7.13944,-15.70672 -0.30102,-0.90308 0.42571,-2.00433 0,-2.85576 -0.61468,-1.22936 -2.53193,-2.98833 -2.85576,-4.28365 -1.44692,-5.78768 -0.28942,-11.44228 -1.4279,-17.13463 -0.82066,-4.10337 -2.97841,-7.50737 -4.28366,-11.42307 -0.84997,-2.54992 0.44554,-5.89418 0,-8.56731 -0.72138,-4.32845 -2.31148,-8.4967 -2.85575,-12.85095 -0.65386,-5.23086 -2.25272,-32.23829 -5.71153,-35.69713 -0.33658,-0.33655 -1.09133,0.33655 -1.42791,0 -1.0573,-1.0573 0,-11.7016 0,-12.85095 0,-3.44802 1.46439,-2.92877 2.85578,-5.71156 0.86606,-1.73212 0.5923,-12.50196 0,-14.27882 -0.15052,-0.45154 -1.09132,0.33655 -1.42787,0 -0.90491,-0.9049 0,-31.79008 0,-37.12501 0,-2.66478 -0.30483,-2.03753 -1.42791,-4.28365 -0.67196,-1.34398 -1.34757,-48.70866 0,-51.40385 1.54072,-3.08144 4.864,-6.02461 5.71156,-8.56731 1.41767,-4.25304 -1.08746,-9.92909 0,-14.27884 0.99563,-3.98252 2.18189,-5.27806 2.85576,-9.99519 1.56744,-10.97201 -1.87458,-10.52971 2.85578,-19.99039 1.95738,-3.91481 0,-54.89664 0,-62.82692 0,-6.3135 4.0522,-40.443673 1.42787,-45.692307 -1.77218,-3.544375 -3.38418,-31.78451 -1.42787,-35.697118 0.44156,-0.883144 7.77864,-5.317215 8.56728,-5.711537 2.67894,-1.339457 0.61061,-1.831751 1.42791,-4.283654 1.00761,-3.022841 3.04609,-1.808526 4.28366,-4.283653 1.20848,-2.416992 2.66094,-15.5119016 4.28365,-17.1346156 1.90384,-1.9038461 1.42788,2.37980766 1.42788,-1.4278845"
       id="path14368" />
    <text
       xml:space="preserve"
       style="font-style:normal;font-weight:normal;font-size:10.5833px;line-height:1.25;font-family:sans-serif;fill:#000000;fill-opacity:1;stroke:none;stroke-width:0.264583"
       x="299.85574"
       y="271.2981"
       id="text15857"><tspan
         sodipodi:role="line"
         id="tspan15855"
         style="stroke-width:0.264583"
         x="299.85574"
         y="271.2981">A5</tspan></text>
    <path
       style="fill:none;stroke:#cbb100;stroke-width:1.065;stroke-linecap:butt;stroke-linejoin:miter;stroke-opacity:1;stroke-miterlimit:4;stroke-dasharray:none"
       d="m 79.961538,158.49519 c -3.331731,-1.90385 -6.663462,-3.80769 -9.995194,-5.71154 0,-0.47596 0.336556,-1.09133 0,-1.42788 -0.713941,-0.71394 -3.56971,0.71394 -4.283651,0 -0.336558,-0.33656 0.336555,-1.09133 0,-1.42789 -0.82985,-0.82985 -4.511562,-0.82789 -5.71154,-1.42788 -5.896488,-2.94825 -3.384555,-2.55607 -8.567308,-4.28366 -5.843866,-1.94795 -11.465076,-7.16042 -17.134615,-9.99519 -1.920531,-0.96026 -5.051703,-0.90595 -7.139422,-1.42788 -3.254125,-0.81353 -4.148414,-2.78815 -4.283654,-2.85577 -5.335226,-2.66762 -12.429758,0.92454 -17.1346156,-1.42789 -0.425713,-0.21285 0.3365555,-1.09133 0,-1.42788 -0.5462691,-0.54627 -6.63861354,0 -7.139423,0"
       id="path17143" />
    <path
       style="fill:none;stroke:#cbb100;stroke-width:1.065;stroke-linecap:butt;stroke-linejoin:miter;stroke-opacity:1;stroke-miterlimit:4;stroke-dasharray:none"
       d="m 74.249999,148.5 c 2.463503,-2.26936 2.568834,-9.42811 1.427885,-12.85096 -4.278556,-12.83567 -2.85577,-27.57858 -2.85577,-41.408657 0,-3.719049 1.122452,-9.4836 0,-12.85096 -1.095888,-3.287668 -2.166109,-6.304071 -1.427885,-9.995194 1.085514,-5.427567 3.364669,-10.192816 4.283655,-15.70673 0.596365,-3.578191 1.480198,-31.308834 0,-34.26923 -1.460839,-2.92168 -2.80537,-5.610739 -4.283655,-8.567308 -0.594418,-1.18884 0.905724,-4.8058135 0,-5.7115381 -0.336555,-0.3365555 -1.091329,0.3365558 -1.427885,0 -0.67311,-0.6731111 0.673114,-2.1826579 0,-2.855769 C 69.368,3.6853084 66.548076,3.2884615 65.682693,2.8557691 63.056251,1.5425483 62.130402,-1.4278846 59.971153,-1.4278846"
       id="path17324" />
    <ellipse
       style="fill:#000000;fill-opacity:1;stroke:#cbb100;stroke-width:1.065;stroke-miterlimit:4;stroke-dasharray:none;stroke-opacity:1"
       id="path17706"
       cx="72.822113"
       cy="154.92548"
       rx="11.423078"
       ry="10.709134" />
    <text
       xml:space="preserve"
       style="font-style:normal;font-weight:normal;font-size:10.5833px;line-height:1.25;font-family:sans-serif;fill:#000000;fill-opacity:1;stroke:none;stroke-width:0.264583"
       x="88.528847"
       y="75.677879"
       id="text19000"><tspan
         sodipodi:role="line"
         id="tspan18998"
         style="stroke-width:0.264583"
         x="88.528847"
         y="75.677879">A45</tspan></text>
    <text
       xml:space="preserve"
       style="font-style:normal;font-weight:normal;font-size:10.5833px;line-height:1.25;font-family:sans-serif;fill:#000000;fill-opacity:1;stroke:none;stroke-width:0.264583"
       x="22.846155"
       y="151.35576"
       id="text20426"><tspan
         sodipodi:role="line"
         id="tspan20424"
         style="stroke-width:0.264583"
         x="22.846155"
         y="151.35576">A45</tspan></text>
    <text
       xml:space="preserve"
       style="font-style:normal;font-weight:normal;font-size:10.5833px;line-height:1.25;font-family:sans-serif;fill:#000000;fill-opacity:1;stroke:none;stroke-width:0.264583"
       x="161.35095"
       y="314.13461"
       id="text22488"><tspan
         sodipodi:role="line"
         id="tspan22486"
         style="stroke-width:0.264583"
         x="161.35095"
         y="314.13461">,- Entrance</tspan></text>
  </g>
</svg>
